<svg xmlns="http://www.w3.org/2000/svg" viewBox="0 0 120 120">
	<defs>
		<linearGradient id="steel" x1="0" y1="0" x2="0" y2="1">
			<stop offset="0" stop-color="#f2f5f7"/>
			<stop offset=".5" stop-color="#d8dde2"/>
			<stop offset="1" stop-color="#9aa5b1"/>
		</linearGradient>
	</defs>
	<ellipse cx="60" cy="112" rx="26" ry="5" fill="#1f2933" opacity=".15"/>
	<line x1="60" y1="22" x2="26" y2="106" stroke="#1f2933" stroke-width="2.5" opacity=".45"/>
	<line x1="60" y1="22" x2="94" y2="106" stroke="#1f2933" stroke-width="2.5" opacity=".45"/>
	<rect x="55" y="72" width="10" height="34" rx="2" fill="url(#steel)" stroke="#4a5560" stroke-width="3"/>
	<rect x="55" y="44" width="10" height="28" rx="2" fill="#37474f" stroke="#1f2933" stroke-width="3"/>
	<rect x="55" y="18" width="10" height="26" rx="2" fill="url(#steel)" stroke="#4a5560" stroke-width="3"/>
	<circle cx="60" cy="14" r="6" fill="#ffd75e" stroke="#7a5c00" stroke-width="3"/>
	<g fill="#f4c430" stroke="#7a5c00" stroke-width="1.8" stroke-linejoin="round">
		<path transform="translate(24,44) scale(1.15)" d="M0,-9 L2.6,-2.9 L9,-2.9 L4.2,1.4 L5.6,8 L0,4.2 L-5.6,8 L-4.2,1.4 L-9,-2.9 L-2.6,-2.9 Z"/>
		<path transform="translate(96,44) scale(1.15)" d="M0,-9 L2.6,-2.9 L9,-2.9 L4.2,1.4 L5.6,8 L0,4.2 L-5.6,8 L-4.2,1.4 L-9,-2.9 L-2.6,-2.9 Z"/>
		<path transform="translate(60,58) scale(1.3)" d="M0,-9 L2.6,-2.9 L9,-2.9 L4.2,1.4 L5.6,8 L0,4.2 L-5.6,8 L-4.2,1.4 L-9,-2.9 L-2.6,-2.9 Z"/>
	</g>
</svg>
