<svg xmlns="http://www.w3.org/2000/svg" viewBox="0 0 120 120">
	<defs>
		<linearGradient id="body" x1="0" y1="0" x2="0" y2="1">
			<stop offset="0" stop-color="#546e7a"/>
			<stop offset="1" stop-color="#37474f"/>
		</linearGradient>
	</defs>
	<ellipse cx="60" cy="107" rx="34" ry="5" fill="#1f2933" opacity=".15"/>
	<path d="M48,8 L54,12 L60,8 L66,12 L72,8 L72,36 L48,36 Z" fill="#f8f9fa" stroke="#1f2933" stroke-width="3" stroke-linejoin="round"/>
	<g fill="#1f2933" opacity=".55">
		<circle cx="53" cy="16" r="2.2"/>
		<circle cx="67" cy="16" r="2.2"/>
		<circle cx="53" cy="24" r="2.2"/>
		<circle cx="67" cy="24" r="2.2"/>
		<circle cx="53" cy="32" r="2.2"/>
		<circle cx="67" cy="32" r="2.2"/>
	</g>
	<path d="M32,88 L88,88 L94,102 L26,102 Z" fill="#6d4c41" stroke="#1f2933" stroke-width="3.5" stroke-linejoin="round"/>
	<rect x="24" y="32" width="72" height="56" rx="9" fill="url(#body)" stroke="#1f2933" stroke-width="3.5"/>
	<g fill="#f8f9fa" stroke="#1f2933" stroke-width="2.5">
		<rect x="30" y="42" width="9" height="9" rx="2"/>
		<rect x="40.5" y="42" width="9" height="9" rx="2"/>
		<rect x="51" y="42" width="9" height="9" rx="2"/>
		<rect x="61.5" y="42" width="9" height="9" rx="2"/>
		<rect x="72" y="42" width="9" height="9" rx="2"/>
		<rect x="35" y="54" width="9" height="9" rx="2"/>
		<rect x="45.5" y="54" width="9" height="9" rx="2"/>
		<rect x="56" y="54" width="9" height="9" rx="2"/>
		<rect x="66.5" y="54" width="9" height="9" rx="2"/>
		<rect x="77" y="54" width="9" height="9" rx="2"/>
		<rect x="40" y="68" width="40" height="9" rx="2.5"/>
	</g>
	<circle cx="86" cy="38" r="3.5" fill="#ffd75e" stroke="#7a5c00" stroke-width="2"/>
	<path d="M30,40 L30,58" stroke="#f8f9fa" stroke-width="3" stroke-linecap="round" opacity=".3"/>
</svg>
