<svg xmlns="http://www.w3.org/2000/svg" viewBox="0 0 120 120">
	<defs>
		<linearGradient id="metal" x1="0" y1="0" x2="0" y2="1">
			<stop offset="0" stop-color="#ffffff"/>
			<stop offset=".5" stop-color="#cfe9f2"/>
			<stop offset="1" stop-color="#8fc3d9"/>
		</linearGradient>
	</defs>
	<ellipse cx="60" cy="108" rx="30" ry="5" fill="#1f2933" opacity=".15"/>
	<path d="M104,4 L106.2,9.8 L112,12 L106.2,14.2 L104,20 L101.8,14.2 L96,12 L101.8,9.8 Z" fill="#eaf6fa" stroke="#2f5a6b" stroke-width="1.8" stroke-linejoin="round"/>
	<path d="M16,2 L18,7.4 L23.5,9.4 L18,11.4 L16,16.8 L14,11.4 L8.5,9.4 L14,7.4 Z" fill="#eaf6fa" stroke="#2f5a6b" stroke-width="1.8" stroke-linejoin="round"/>
	<rect x="34" y="97" width="52" height="9" rx="4.5" fill="#8fc3d9" stroke="#2f5a6b" stroke-width="3"/>
	<rect x="56" y="24" width="8" height="75" fill="url(#metal)" stroke="#2f5a6b" stroke-width="3"/>
	<circle cx="60" cy="24" r="6.5" fill="#b8dbe8" stroke="#2f5a6b" stroke-width="3"/>
	<line x1="23.9" y1="35.7" x2="96.1" y2="12.3" stroke="#8fc3d9" stroke-width="6" stroke-linecap="round"/>
	<line x1="23.9" y1="35.7" x2="7.9" y2="59.7" stroke="#2f5a6b" stroke-width="2.5" stroke-linecap="round"/>
	<line x1="23.9" y1="35.7" x2="39.9" y2="59.7" stroke="#2f5a6b" stroke-width="2.5" stroke-linecap="round"/>
	<path d="M5.9,59.7 A18,14 0 0 0 41.9,59.7 Z" fill="url(#metal)" stroke="#2f5a6b" stroke-width="3" stroke-linejoin="round"/>
	<rect x="10" y="51.7" width="20" height="5" rx="2.5" fill="#d8dde2" stroke="#4a5560" stroke-width="2.5"/>
	<rect x="14" y="44.7" width="12" height="5" rx="2.5" fill="#d8dde2" stroke="#4a5560" stroke-width="2.5"/>
	<rect x="17" y="37.7" width="8" height="5" rx="2.5" fill="#d8dde2" stroke="#4a5560" stroke-width="2.5"/>
	<line x1="96.1" y1="12.3" x2="80.1" y2="36.3" stroke="#2f5a6b" stroke-width="2.5" stroke-linecap="round"/>
	<line x1="96.1" y1="12.3" x2="112.1" y2="36.3" stroke="#2f5a6b" stroke-width="2.5" stroke-linecap="round"/>
	<path d="M78.1,36.3 A18,14 0 0 0 114.1,36.3 Z" fill="url(#metal)" stroke="#2f5a6b" stroke-width="3" stroke-linejoin="round"/>
	<polyline points="84,34.3 88,28.3 92,36.3 96,30.3 100,35.3 104,31.3 108,36.3 112,32.3" fill="none" stroke="#22d3ee" stroke-width="3.5" stroke-linecap="round" stroke-linejoin="round"/>
</svg>
